<svg width="184" height="31" viewBox="0 0 184 31" fill="none" xmlns="http://www.w3.org/2000/svg">
<g id="Group">
<path id="Vector" d="M19.8651 10.6911L17.1878 15.7112C14.2295 14.2052 11.7942 13.456 10.077 13.456C9.07786 13.456 8.43781 13.8113 8.43781 14.4832C8.43781 16.8929 19.7871 15.8271 19.7871 23.1874C19.7871 27.6128 15.9077 30.3083 10.2331 30.3083C6.40056 30.3083 2.84122 29.2811 0 27.2653L2.47436 22.2451C5.19069 23.9829 7.95386 24.8942 10.3424 24.8942C11.4195 24.8942 12.1454 24.5776 12.1454 23.9056C12.1454 21.4574 1.03814 22.639 1.03814 15.2864C1.03814 10.776 4.83944 8.08832 10.3111 8.08832C13.5895 8.08832 16.9068 8.99967 19.8651 10.6988V10.6911Z" fill="#4C4B4B"/>
<path id="Vector_2" d="M47.5436 19.3103C47.5436 25.9137 43.6721 30.2233 37.6774 30.2233C35.1172 30.2233 33.0019 29.2347 31.5266 27.4507V29.9453H23.4557V0.612183H31.5266V10.9305C32.9629 9.15416 35.0469 8.16558 37.4823 8.16558C43.555 8.16558 47.5514 12.5988 47.5514 19.318L47.5436 19.3103ZM39.3946 19.1172C39.3946 16.2673 37.8335 14.3288 35.4372 14.3288C33.0409 14.3288 31.5188 16.2673 31.5188 19.1172C31.5188 21.9671 33.119 23.8979 35.4372 23.8979C37.7555 23.8979 39.3946 21.9594 39.3946 19.1172Z" fill="#4C4B4B"/>
<path id="Vector_3" d="M70.7027 15.9893V29.9453H62.7879V27.5742C61.4687 29.3197 59.3144 30.3083 56.4341 30.3083C51.7976 30.3083 49.0813 27.5742 49.0813 23.5427C49.0813 19.5111 51.9928 17.1014 57.4723 17.0165H62.7879V16.9392C62.7879 15.1629 61.5077 14.0971 59.0334 14.0971C57.3162 14.0971 54.8808 14.6145 52.4767 15.6417L50.4785 10.3435C54.0378 8.92245 57.5503 8.12695 60.9535 8.12695C67.0653 8.12695 70.7027 11.0155 70.7027 15.997V15.9893ZM62.7879 22.8707V20.9322H59.1114C57.5113 20.9322 56.6761 21.6041 56.6761 22.948C56.6761 24.2918 57.5581 25.0796 59.1114 25.0796C60.7506 25.0796 62.1868 24.2146 62.7879 22.863V22.8707Z" fill="#4C4B4B"/>
<path id="Vector_4" d="M75.1675 29.9453V0.612183H83.2384V29.9453H75.1675Z" fill="#4C4B4B"/>
<path id="Vector_5" d="M110.854 19.1944C110.854 25.8365 106.093 30.231 98.7871 30.231C91.4811 30.231 86.6807 25.8442 86.6807 19.1944C86.6807 12.5447 91.4811 8.15784 98.7871 8.15784C106.093 8.15784 110.854 12.5061 110.854 19.1944ZM94.8297 19.2717C94.8297 22.1602 96.3908 24.0524 98.7871 24.0524C101.183 24.0524 102.705 22.1602 102.705 19.2717C102.705 16.3832 101.144 14.4832 98.7871 14.4832C96.4298 14.4832 94.8297 16.4218 94.8297 19.2717Z" fill="#4C4B4B"/>
<path id="Vector_6" d="M134.014 15.9893V29.9453H126.099V27.5742C124.78 29.3197 122.625 30.3083 119.745 30.3083C115.109 30.3083 112.392 27.5742 112.392 23.5427C112.392 19.5111 115.304 17.1014 120.783 17.0165H126.099V16.9392C126.099 15.1629 124.819 14.0971 122.344 14.0971C120.627 14.0971 118.192 14.6145 115.788 15.6417L113.789 10.3435C117.349 8.92245 120.861 8.12695 124.264 8.12695C130.376 8.12695 134.014 11.0155 134.014 15.997V15.9893ZM126.099 22.8707V20.9322H122.422C120.822 20.9322 119.987 21.6041 119.987 22.948C119.987 24.2918 120.869 25.0796 122.422 25.0796C124.062 25.0796 125.498 24.2146 126.099 22.863V22.8707Z" fill="#4C4B4B"/>
<path id="Vector_7" d="M161.091 16.306V29.9453H153.02V18.5998C153.02 16.4604 151.779 15.1166 149.898 15.1166C147.705 15.1552 146.346 16.8543 146.346 19.3103V29.9453H138.275V8.43592H146.346V11.7569C147.868 9.38589 150.218 8.11926 153.262 8.11926C157.899 8.11926 161.091 11.3244 161.091 16.306Z" fill="#4C4B4B"/>
<path id="Vector_8" d="M183.345 10.6911L180.667 15.7112C177.709 14.2052 175.274 13.456 173.556 13.456C172.557 13.456 171.917 13.8113 171.917 14.4832C171.917 16.8929 183.267 15.8271 183.267 23.1874C183.267 27.6128 179.387 30.3083 173.713 30.3083C169.88 30.3083 166.321 29.2811 163.479 27.2653L165.954 22.2451C168.67 23.9829 171.433 24.8942 173.822 24.8942C174.899 24.8942 175.625 24.5776 175.625 23.9056C175.625 21.4574 164.518 22.639 164.518 15.2864C164.518 10.776 168.319 8.08832 173.791 8.08832C177.069 8.08832 180.386 8.99967 183.345 10.6988V10.6911Z" fill="#4C4B4B"/>
</g>
</svg>
