<svg width="93" height="53" viewBox="0 0 93 53" fill="none" xmlns="http://www.w3.org/2000/svg">
<path id="Vector" d="M28.1125 41.953V26.4678H13.1804V41.953H0.707153V0.355272H13.1804V16.9063H28.1125V0.355272H40.5857V41.953H28.1125ZM93 47.5292C89.7607 50.3173 84.7808 52.1555 80.4643 52.1555C74.3448 52.1555 69.3102 48.3556 66.8514 42.4241C54.3157 41.8294 45.2613 32.9862 45.2613 21.1232C45.2613 9.26024 54.9792 0 68.1706 0C81.362 0 91.0799 8.95903 91.0799 21.1232C91.0799 30.1441 85.7409 37.5044 77.6465 40.7636C78.7861 42.1924 80.2223 43.0806 81.8459 43.0806C83.6412 43.0806 86.2795 41.953 88.8007 40.1148L93 47.5369V47.5292ZM68.3501 32.1598C73.8686 32.1598 78.3022 27.4718 78.3022 21.185C78.3022 14.8983 73.8686 10.3261 68.3501 10.3261C62.8316 10.3261 58.039 14.8983 58.039 21.185C58.039 27.4718 62.8394 32.1598 68.3501 32.1598Z" fill="url(#paint0_linear_124_193)"/>
<defs>
<linearGradient id="paint0_linear_124_193" x1="9.73818" y1="-8.58831" x2="78.9814" y2="61.4001" gradientUnits="userSpaceOnUse">
<stop stop-color="#64F8AA"/>
<stop offset="1" stop-color="#07C097"/>
</linearGradient>
</defs>
</svg>
