<svg width="173" height="17" viewBox="0 0 173 17" fill="none" xmlns="http://www.w3.org/2000/svg">
<g id="Group">
<path id="Vector" d="M6.95145 12.2734C6.29578 13.0766 5.24984 13.5245 3.89167 13.5245C1.80759 13.5245 0.543091 12.2734 0.543091 10.5124C0.543091 8.75153 1.86223 7.63165 4.25073 7.60848H6.92804V7.43084C6.92804 6.41136 6.24114 5.81667 4.90639 5.81667C4.03998 5.81667 3.02526 6.10243 2.01053 6.65851L1.14412 4.75858C2.59595 4.04031 3.83704 3.64642 5.53865 3.64642C8.1457 3.64642 9.64437 4.93621 9.66779 7.09874L9.6912 13.3855H6.95926V12.2579L6.95145 12.2734ZM6.92804 10.1031V9.24582H4.74248C3.67312 9.24582 3.15014 9.57019 3.15014 10.3348C3.15014 11.0994 3.72776 11.5474 4.67223 11.5474C5.84306 11.5474 6.77193 10.9218 6.93584 10.0954L6.92804 10.1031Z" fill="#A39F9F"/>
<path id="Vector_2" d="M26.9961 8.63569C26.9961 11.5551 25.2008 13.5091 22.4689 13.5091C21.1107 13.5091 20.0491 12.9685 19.3388 12.003V13.401H16.5522V0.116882H19.3388V5.18337C20.0257 4.21796 21.0951 3.67732 22.4142 3.67732C25.1462 3.67732 26.9961 5.66221 26.9961 8.63569ZM24.1705 8.543C24.1705 7.00607 23.1948 5.89391 21.7664 5.89391C20.3379 5.89391 19.3388 6.9829 19.3388 8.543C19.3388 10.1031 20.3379 11.2075 21.7664 11.2075C23.1948 11.2075 24.1705 10.1108 24.1705 8.543Z" fill="#A39F9F"/>
<path id="Vector_3" d="M37.7834 9.42348H30.7974C31.1253 10.6438 32.0619 11.3543 33.3108 11.3543C34.2319 11.3543 35.0983 10.999 35.7696 10.3348L37.237 11.8023C36.2613 12.8758 34.8251 13.5014 33.0766 13.5014C29.9622 13.5014 27.9874 11.5319 27.9874 8.61253C27.9874 5.69312 30.0325 3.66962 32.9986 3.66962C36.4174 3.66962 38.0098 5.90937 37.7756 9.41575L37.7834 9.42348ZM35.1763 7.79386C35.1373 6.51951 34.3099 5.70084 33.022 5.70084C31.7341 5.70084 30.9613 6.52724 30.7428 7.79386H35.1763Z" fill="#A39F9F"/>
<path id="Vector_4" d="M45.667 12.8604C44.9411 13.2697 44.0357 13.5246 43.1302 13.5246C41.3896 13.5246 40.0705 12.536 40.0705 10.5511V6.09474H38.7123V4.19481H40.0705V1.54572H42.8414V4.19481H45.4797V6.11019H42.8414V10.0877C42.8414 10.8909 43.1849 11.2153 43.7781 11.1998C44.1371 11.1998 44.5743 11.0763 45.0816 10.8446L45.6592 12.8681L45.667 12.8604Z" fill="#A39F9F"/>
<path id="Vector_5" d="M53.3789 12.8604C52.653 13.2697 51.7476 13.5246 50.8421 13.5246C49.1015 13.5246 47.7824 12.536 47.7824 10.5511V6.09474H46.4242V4.19481H47.7824V1.54572H50.5533V4.19481H53.1916V6.11019H50.5533V10.0877C50.5533 10.8909 50.8968 11.2153 51.49 11.1998C51.8491 11.1998 52.2862 11.0763 52.7935 10.8446L53.3711 12.8681L53.3789 12.8604Z" fill="#A39F9F"/>
<path id="Vector_6" d="M63.9554 9.42348H56.9694C57.2973 10.6438 58.2339 11.3543 59.4828 11.3543C60.4039 11.3543 61.2703 10.999 61.9416 10.3348L63.409 11.8023C62.4333 12.8758 60.9971 13.5014 59.2486 13.5014C56.1342 13.5014 54.1594 11.5319 54.1594 8.61253C54.1594 5.69312 56.2045 3.66962 59.1706 3.66962C62.5894 3.66962 64.1818 5.90937 63.9476 9.41575L63.9554 9.42348ZM61.3483 7.79386C61.3093 6.51951 60.4819 5.70084 59.194 5.70084C57.9061 5.70084 57.1333 6.52724 56.9148 7.79386H61.3483Z" fill="#A39F9F"/>
<path id="Vector_7" d="M68.5919 5.50773C69.2632 4.32607 70.3637 3.67731 71.8078 3.66187V6.2569C69.8174 6.07926 68.5919 7.13735 68.5919 8.75924V13.3932H65.8053V3.76227H68.5919V5.50001V5.50773Z" fill="#A39F9F"/>
<path id="Vector_8" d="M86.8413 13.401L84.7416 7.0447L82.6576 13.401H79.871L76.3038 3.78547L79.1451 3.77002L81.315 10.6592L83.4147 3.77002H86.1466L88.2776 10.6592L90.4085 3.77002H93.156L89.6123 13.401H86.8257H86.8413Z" fill="#A39F9F"/>
<path id="Vector_9" d="M99.7907 12.2734C99.135 13.0766 98.0891 13.5245 96.7309 13.5245C94.6468 13.5245 93.3823 12.2734 93.3823 10.5124C93.3823 8.75153 94.7015 7.63165 97.09 7.60848H99.7673V7.43084C99.7673 6.41136 99.0804 5.81667 97.7456 5.81667C96.8792 5.81667 95.8645 6.10243 94.8498 6.65851L93.9834 4.75858C95.4352 4.04031 96.6763 3.64642 98.3779 3.64642C100.985 3.64642 102.484 4.93621 102.507 7.09874L102.53 13.3855H99.7985V12.2579L99.7907 12.2734ZM99.7673 10.1031V9.24582H97.5817C96.5124 9.24582 95.9894 9.57019 95.9894 10.3348C95.9894 11.0994 96.567 11.5474 97.5115 11.5474C98.6823 11.5474 99.6112 10.9218 99.7751 10.0954L99.7673 10.1031Z" fill="#A39F9F"/>
<path id="Vector_10" d="M109.477 14.4745C108.791 16.1736 107.596 17 105.91 17C104.88 17 104.06 16.7143 103.264 16.0732L104.443 14.0884C104.88 14.4436 105.255 14.6058 105.707 14.6058C106.285 14.6058 106.722 14.3201 106.987 13.7485L107.261 13.2079L103.225 3.77002H106.105L108.658 10.3966L110.953 3.77002H113.739L109.47 14.4745H109.477Z" fill="#A39F9F"/>
<path id="Vector_11" d="M125.362 12.8604C124.636 13.2697 123.73 13.5246 122.825 13.5246C121.084 13.5246 119.765 12.536 119.765 10.5511V6.09474H118.407V4.19481H119.765V1.54572H122.536V4.19481H125.174V6.11019H122.536V10.0877C122.536 10.8909 122.88 11.2153 123.473 11.1998C123.832 11.1998 124.269 11.0763 124.776 10.8446L125.354 12.8681L125.362 12.8604Z" fill="#A39F9F"/>
<path id="Vector_12" d="M136.586 8.58161C136.586 11.5165 134.486 13.5091 131.372 13.5091C128.258 13.5091 126.142 11.5242 126.142 8.58161C126.142 5.63903 128.242 3.67731 131.372 3.67731C134.502 3.67731 136.586 5.63131 136.586 8.58161ZM128.952 8.62022C128.952 10.1958 129.928 11.2693 131.38 11.2693C132.832 11.2693 133.8 10.1958 133.8 8.62022C133.8 7.04467 132.808 5.97113 131.38 5.97113C129.951 5.97113 128.952 7.04467 128.952 8.62022Z" fill="#A39F9F"/>
<path id="Vector_13" d="M149.895 4.71996L148.935 6.60444C147.865 6.00975 146.78 5.66993 145.968 5.66993C145.313 5.66993 144.844 5.88618 144.844 6.38819C144.844 7.84017 149.981 7.10646 149.965 10.5047C149.965 12.4742 148.209 13.5168 146.007 13.5168C144.431 13.5168 142.893 13.0534 141.792 12.1729L142.698 10.3116C143.713 11.084 145.016 11.5087 146.086 11.5087C146.788 11.5087 147.311 11.277 147.311 10.7596C147.311 9.22265 142.269 10.0413 142.269 6.65851C142.269 4.67362 143.986 3.64642 146.101 3.64642C147.444 3.64642 148.817 4.04031 149.902 4.71996H149.895Z" fill="#A39F9F"/>
<path id="Vector_14" d="M162.376 8.63569C162.376 11.5551 160.58 13.5091 157.848 13.5091C156.49 13.5091 155.429 12.9685 154.718 12.003V13.401H151.932V0.116882H154.718V5.18337C155.405 4.21796 156.475 3.67732 157.794 3.67732C160.526 3.67732 162.376 5.66221 162.376 8.63569ZM159.55 8.543C159.55 7.00607 158.574 5.89391 157.146 5.89391C155.718 5.89391 154.718 6.9829 154.718 8.543C154.718 10.1031 155.718 11.2075 157.146 11.2075C158.574 11.2075 159.55 10.1108 159.55 8.543Z" fill="#A39F9F"/>
<path id="Vector_15" d="M169.853 12.2734C169.198 13.0766 168.152 13.5245 166.794 13.5245C164.71 13.5245 163.445 12.2734 163.445 10.5124C163.445 8.75153 164.764 7.63165 167.153 7.60848H169.83V7.43084C169.83 6.41136 169.143 5.81667 167.808 5.81667C166.942 5.81667 165.927 6.10243 164.912 6.65851L164.046 4.75858C165.498 4.04031 166.739 3.64642 168.441 3.64642C171.048 3.64642 172.546 4.93621 172.57 7.09874L172.593 13.3855H169.861V12.2579L169.853 12.2734ZM169.83 10.1031V9.24582H167.644C166.575 9.24582 166.052 9.57019 166.052 10.3348C166.052 11.0994 166.638 11.5474 167.574 11.5474C168.745 11.5474 169.674 10.9218 169.838 10.0954L169.83 10.1031Z" fill="#A39F9F"/>
</g>
</svg>
